<svg width="24" height="32" viewBox="0 0 24 32" fill="none" xmlns="http://www.w3.org/2000/svg">
<path d="M22.9551 19.4062V15.3252C22.9551 13.9336 22.4287 12.599 21.4917 11.615C20.5548 10.6309 19.284 10.0781 17.9589 10.0781H15.7384C15.2967 10.0781 14.8731 9.89385 14.5608 9.56585C14.2485 9.23784 14.073 8.79297 14.073 8.3291V5.99707C14.073 4.60546 13.5467 3.27085 12.6097 2.28683C11.6728 1.30281 10.402 0.75 9.0769 0.75H6.30127M9.63203 0.75H2.41538C1.49609 0.75 0.75 1.53356 0.75 2.49902V29.3174C0.75 30.2828 1.49609 31.0664 2.41538 31.0664H21.2897C22.209 31.0664 22.9551 30.2828 22.9551 29.3174V14.7422C22.9551 11.0312 21.5514 7.47226 19.0528 4.84822C16.5543 2.22417 13.1655 0.75 9.63203 0.75Z" stroke="black" stroke-width="1.5" stroke-linecap="round" stroke-linejoin="round"/>
</svg>
