<svg width="33" height="33" viewBox="0 0 33 33" fill="none" xmlns="http://www.w3.org/2000/svg">
<path d="M7.19092 0.875V4.66455M24.8755 0.875V4.66455M0.875 27.4019V8.4541C0.875 7.44905 1.27426 6.48516 1.98493 5.77448C2.69561 5.06381 3.6595 4.66455 4.66455 4.66455H27.4019C28.4069 4.66455 29.3708 5.06381 30.0815 5.77448C30.7922 6.48516 31.1914 7.44905 31.1914 8.4541V27.4019M0.875 27.4019C0.875 28.4069 1.27426 29.3708 1.98493 30.0815C2.69561 30.7922 3.6595 31.1914 4.66455 31.1914H27.4019C28.4069 31.1914 29.3708 30.7922 30.0815 30.0815C30.7922 29.3708 31.1914 28.4069 31.1914 27.4019M0.875 27.4019V14.77C0.875 13.765 1.27426 12.8011 1.98493 12.0904C2.69561 11.3797 3.6595 10.9805 4.66455 10.9805H27.4019C28.4069 10.9805 29.3708 11.3797 30.0815 12.0904C30.7922 12.8011 31.1914 13.765 31.1914 14.77V27.4019" stroke="black" stroke-width="1.75" stroke-linecap="round" stroke-linejoin="round"/>
</svg>
