<svg width="40" height="32" viewBox="0 0 40 32" fill="none" xmlns="http://www.w3.org/2000/svg">
<path d="M0.749534 26.2796L0.749536 5.5368C0.749536 4.26726 1.25386 3.04972 2.15156 2.15202C3.04926 1.25432 4.2668 0.749997 5.53634 0.749997L34.2571 0.75C35.5267 0.75 36.7442 1.25432 37.6419 2.15202C38.5396 3.04972 39.0439 4.26726 39.0439 5.5368L39.0439 26.2796M0.749534 26.2796C0.749534 27.5491 1.25386 28.7667 2.15155 29.6644C3.04925 30.5621 4.2668 31.0664 5.53633 31.0664L34.2571 31.0664C35.5267 31.0664 36.7442 30.5621 37.6419 29.6644C38.5396 28.7667 39.0439 27.5491 39.0439 26.2796M0.749534 26.2796L0.749536 11.9192C0.749536 10.6497 0.749536 8.05167 0.749536 7.1324C2.15155 7.1324 4.2668 7.1324 5.53634 7.1324L34.2571 7.1324C35.5267 7.1324 37.6419 7.1324 39.0437 7.1324C39.0442 8.1408 39.0439 10.6497 39.0439 11.9192L39.0439 26.2796" stroke="black" stroke-width="1.5" stroke-linecap="round" stroke-linejoin="round"/>
<circle cx="4.85325" cy="3.93235" r="0.842505" fill="black"/>
<circle cx="8.14426" cy="3.93235" r="0.842505" fill="black"/>
<circle cx="11.4353" cy="3.93235" r="0.842505" fill="black"/>
</svg>
