<svg width="38" height="31" viewBox="0 0 38 31" fill="none" xmlns="http://www.w3.org/2000/svg">
<path d="M6.11875 27.4561C6.11875 27.794 6.05215 28.1286 5.92274 28.4408C5.79333 28.7531 5.60366 29.0367 5.36455 29.2757C5.12544 29.5146 4.84157 29.7042 4.52916 29.8335C4.21675 29.9628 3.8819 30.0294 3.54375 30.0294C3.2056 30.0294 2.87075 29.9628 2.55834 29.8335C2.24593 29.7042 1.96206 29.5146 1.72295 29.2757C1.48384 29.0367 1.29417 28.7531 1.16476 28.4408C1.03535 28.1286 0.96875 27.794 0.96875 27.4561C0.96875 26.7736 1.24004 26.1191 1.72295 25.6365C2.20586 25.1539 2.86082 24.8828 3.54375 24.8828C4.22668 24.8828 4.88164 25.1539 5.36455 25.6365C5.84746 26.1191 6.11875 26.7736 6.11875 27.4561Z" stroke="black" stroke-width="1.5" stroke-linecap="round" stroke-linejoin="round"/>
<path d="M21.6881 27.4561C21.6881 27.794 21.6215 28.1286 21.4921 28.4408C21.3627 28.7531 21.173 29.0367 20.9339 29.2757C20.6948 29.5146 20.4109 29.7042 20.0985 29.8335C19.7861 29.9628 19.4512 30.0294 19.1131 30.0294C18.7749 30.0294 18.4401 29.9628 18.1277 29.8335C17.8153 29.7042 17.5314 29.5146 17.2923 29.2757C17.0532 29.0367 16.8635 28.7531 16.7341 28.4408C16.6047 28.1286 16.5381 27.794 16.5381 27.4561C16.5381 26.7736 16.8094 26.1191 17.2923 25.6365C17.7752 25.1539 18.4302 24.8828 19.1131 24.8828C19.796 24.8828 20.451 25.1539 20.9339 25.6365C21.4168 26.1191 21.6881 26.7736 21.6881 27.4561Z" stroke="black" stroke-width="1.5" stroke-linecap="round" stroke-linejoin="round"/>
<path d="M37.2564 27.4561C37.2564 27.794 37.1898 28.1286 37.0604 28.4408C36.931 28.7531 36.7414 29.0367 36.5022 29.2757C36.2631 29.5146 35.9793 29.7042 35.6669 29.8335C35.3544 29.9628 35.0196 30.0294 34.6814 30.0294C34.3433 30.0294 34.0084 29.9628 33.696 29.8335C33.3836 29.7042 33.0998 29.5146 32.8606 29.2757C32.6215 29.0367 32.4319 28.7531 32.3025 28.4408C32.173 28.1286 32.1064 27.794 32.1064 27.4561C32.1064 26.7736 32.3777 26.1191 32.8606 25.6365C33.3436 25.1539 33.9985 24.8828 34.6814 24.8828C35.3644 24.8828 36.0193 25.1539 36.5022 25.6365C36.9852 26.1191 37.2564 26.7736 37.2564 27.4561Z" stroke="black" stroke-width="1.5" stroke-linecap="round" stroke-linejoin="round"/>
<path d="M10.7784 9.10156C9.54068 9.10156 8.53613 8.5403 8.53613 7.84875L8.53613 2.00231C8.53613 1.31076 9.54068 0.749503 10.7784 0.749503L27.2218 0.749503C28.4596 0.749503 29.4641 1.31076 29.4641 2.00231L29.4641 7.84875C29.4641 8.18102 29.2279 8.49967 28.8074 8.73462C28.3869 8.96957 27.8165 9.10156 27.2218 9.10156L10.7784 9.10156Z" stroke="black" stroke-width="1.5" stroke-linecap="round" stroke-linejoin="round"/>
<rect x="1.29904" width="8.02813" height="8.02813" rx="1.25" transform="matrix(0.866025 -0.5 0.866025 0.5 10.9221 17.505)" stroke="black" stroke-width="1.5"/>
<path d="M19.2379 8.52734V13.0272M19.2379 20.7742V25.1894M25.5695 16.9422H34.6215V25.1894M12.3168 16.9422L3.60449 16.9383V25.1855" stroke="black" stroke-width="1.5" stroke-linejoin="round"/>
</svg>
