<svg width="1195" height="531" viewBox="0 0 1195 531" fill="none" xmlns="http://www.w3.org/2000/svg">
<rect width="1195" height="531" fill="#86353B"/>
<rect x="98.0098" y="83.5468" width="171.755" height="363.907" rx="16" fill="#5750FA" stroke="#220606" stroke-width="8"/>
<rect x="373.84" y="83.5468" width="171.755" height="363.907" rx="16" fill="#521E20" stroke="#220606" stroke-width="8"/>
<rect x="649.671" y="83.5468" width="171.755" height="363.907" rx="16" fill="#521E20" stroke="#220606" stroke-width="8"/>
<rect x="925.502" y="83.5468" width="171.755" height="363.907" rx="16" fill="#5750FA" stroke="#220606" stroke-width="8"/>
<path d="M137.399 87.8113H230.376V91.2412C230.376 96.7641 225.898 101.241 220.376 101.241H147.399C141.876 101.241 137.399 96.7641 137.399 91.2412V87.8113Z" fill="#220606"/>
<path d="M413.229 87.8113H506.206V91.2412C506.206 96.7641 501.729 101.241 496.206 101.241H423.229C417.707 101.241 413.229 96.7641 413.229 91.2412V87.8113Z" fill="#220606"/>
<path d="M689.06 87.8113H782.037V91.2412C782.037 96.7641 777.56 101.241 772.037 101.241H699.06C693.537 101.241 689.06 96.7641 689.06 91.2412V87.8113Z" fill="#220606"/>
<path d="M964.891 87.8113H1057.87V91.2412C1057.87 96.7641 1053.39 101.241 1047.87 101.241H974.891C969.368 101.241 964.891 96.7641 964.891 91.2412V87.8113Z" fill="#220606"/>
<path fill-rule="evenodd" clip-rule="evenodd" d="M422 228H498V264.619C495.619 264.245 493.178 264.051 490.692 264.051C467.179 264.051 447.719 281.403 444.417 304H422V228ZM463.897 249.923C463.897 254.228 460.407 257.718 456.103 257.718C451.798 257.718 448.308 254.228 448.308 249.923C448.308 245.618 451.798 242.128 456.103 242.128C460.407 242.128 463.897 245.618 463.897 249.923Z" fill="#FEBA3F"/>
<path fill-rule="evenodd" clip-rule="evenodd" d="M666 111H685V120.155C684.405 120.061 683.795 120.013 683.173 120.013C677.295 120.013 672.43 124.351 671.604 130H666V111ZM676.474 116.481C676.474 117.557 675.602 118.429 674.526 118.429C673.449 118.429 672.577 117.557 672.577 116.481C672.577 115.405 673.449 114.532 674.526 114.532C675.602 114.532 676.474 115.405 676.474 116.481Z" fill="#FEBA3F"/>
<path fill-rule="evenodd" clip-rule="evenodd" d="M111 111H130V120.155C129.405 120.061 128.795 120.013 128.173 120.013C122.295 120.013 117.43 124.351 116.604 130H111V111ZM121.474 116.481C121.474 117.557 120.602 118.429 119.526 118.429C118.449 118.429 117.577 117.557 117.577 116.481C117.577 115.405 118.449 114.532 119.526 114.532C120.602 114.532 121.474 115.405 121.474 116.481Z" fill="#FEBA3F"/>
<path fill-rule="evenodd" clip-rule="evenodd" d="M942 111H961V120.155C960.405 120.061 959.795 120.013 959.173 120.013C953.295 120.013 948.43 124.351 947.604 130H942V111ZM952.474 116.481C952.474 117.557 951.602 118.429 950.526 118.429C949.449 118.429 948.577 117.557 948.577 116.481C948.577 115.405 949.449 114.532 950.526 114.532C951.602 114.532 952.474 115.405 952.474 116.481Z" fill="#FEBA3F"/>
<path fill-rule="evenodd" clip-rule="evenodd" d="M387 111H406V120.155C405.405 120.061 404.795 120.013 404.173 120.013C398.295 120.013 393.43 124.351 392.604 130H387V111ZM397.474 116.481C397.474 117.557 396.602 118.429 395.526 118.429C394.449 118.429 393.577 117.557 393.577 116.481C393.577 115.405 394.449 114.532 395.526 114.532C396.602 114.532 397.474 115.405 397.474 116.481Z" fill="#FEBA3F"/>
<path d="M668.055 222.296H671.404V242H668.055V222.296ZM675.363 227.926H678.234L678.459 229.305C678.928 228.817 679.482 228.433 680.12 228.151C680.777 227.87 681.48 227.729 682.231 227.729C683.338 227.729 684.286 227.963 685.074 228.433C685.881 228.883 686.5 229.559 686.932 230.459C687.363 231.341 687.579 232.448 687.579 233.781V242H684.398V234.203C684.398 233.021 684.154 232.129 683.666 231.529C683.197 230.928 682.484 230.628 681.527 230.628C680.551 230.628 679.81 230.938 679.304 231.557C678.797 232.158 678.544 233.049 678.544 234.231V242H675.363V227.926ZM693.113 237.468C693.244 237.994 693.469 238.397 693.788 238.679C694.126 238.96 694.492 239.157 694.886 239.27C695.28 239.363 695.656 239.41 696.012 239.41C696.744 239.41 697.316 239.27 697.729 238.988C698.161 238.688 698.377 238.313 698.377 237.862C698.377 237.487 698.236 237.196 697.954 236.99C697.673 236.783 697.307 236.624 696.857 236.511C696.425 236.38 695.975 236.248 695.505 236.117C694.999 235.986 694.455 235.836 693.873 235.667C693.31 235.498 692.775 235.263 692.268 234.963C691.762 234.663 691.349 234.278 691.03 233.809C690.711 233.34 690.551 232.758 690.551 232.064C690.551 231.182 690.795 230.422 691.283 229.784C691.771 229.127 692.437 228.62 693.282 228.264C694.126 227.907 695.074 227.729 696.125 227.729C697.382 227.729 698.47 227.992 699.39 228.517C700.309 229.042 700.976 229.812 701.388 230.825L698.602 231.726C698.47 231.463 698.273 231.238 698.011 231.05C697.767 230.863 697.466 230.731 697.11 230.656C696.772 230.562 696.425 230.516 696.068 230.516C695.468 230.516 694.961 230.638 694.548 230.881C694.136 231.125 693.929 231.473 693.929 231.923C693.929 232.148 693.995 232.345 694.126 232.514C694.276 232.683 694.473 232.824 694.717 232.936C694.961 233.03 695.252 233.124 695.59 233.218C695.928 233.293 696.284 233.387 696.659 233.499C697.26 233.668 697.851 233.856 698.433 234.062C699.033 234.25 699.578 234.494 700.065 234.794C700.572 235.094 700.966 235.488 701.248 235.976C701.548 236.464 701.717 237.083 701.754 237.834C701.754 238.641 701.52 239.382 701.051 240.058C700.581 240.715 699.906 241.24 699.024 241.634C698.161 242.009 697.129 242.197 695.928 242.197C694.539 242.197 693.347 241.897 692.353 241.296C691.358 240.696 690.683 239.729 690.326 238.397L693.113 237.468ZM716.795 242H713.868L713.671 240.593C713.202 241.099 712.639 241.493 711.982 241.775C711.325 242.056 710.631 242.197 709.899 242.197C708.792 242.197 707.835 241.972 707.028 241.521C706.24 241.052 705.63 240.377 705.198 239.495C704.767 238.594 704.551 237.487 704.551 236.173V227.926H707.732V235.751C707.732 236.915 707.966 237.806 708.435 238.425C708.904 239.026 709.627 239.326 710.603 239.326C711.541 239.326 712.273 239.026 712.798 238.425C713.342 237.806 713.615 236.896 713.615 235.695V227.926H716.795V242ZM720.499 227.926H723.37L723.623 229.671C723.999 229.202 724.44 228.817 724.946 228.517C725.453 228.198 725.997 227.982 726.579 227.87C727.179 227.757 727.78 227.776 728.38 227.926V230.853C727.892 230.684 727.367 230.647 726.804 230.741C726.26 230.816 725.753 231.022 725.284 231.36C724.815 231.679 724.43 232.139 724.13 232.739C723.83 233.321 723.68 234.043 723.68 234.907V242H720.499V227.926ZM739.278 242L738.996 240.283C738.546 240.883 738.011 241.343 737.392 241.662C736.772 241.981 735.947 242.141 734.915 242.141C733.939 242.141 733.094 241.981 732.381 241.662C731.668 241.324 731.115 240.865 730.721 240.283C730.345 239.682 730.158 238.988 730.158 238.2C730.158 237.018 730.589 236.033 731.452 235.244C732.334 234.438 733.62 233.94 735.309 233.753L738.996 233.359V232.261C738.996 231.81 738.799 231.407 738.405 231.05C738.011 230.675 737.382 230.487 736.519 230.487C735.768 230.487 735.112 230.675 734.549 231.05C734.004 231.407 733.639 231.951 733.451 232.683L730.692 231.67C731.049 230.431 731.753 229.465 732.803 228.77C733.873 228.076 735.168 227.729 736.688 227.729C738.527 227.729 739.906 228.189 740.826 229.108C741.745 230.028 742.205 231.2 742.205 232.627V242H739.278ZM738.996 235.807L735.618 236.23C734.905 236.323 734.37 236.53 734.014 236.849C733.657 237.149 733.479 237.534 733.479 238.003C733.479 238.435 733.648 238.81 733.986 239.129C734.342 239.429 734.821 239.579 735.421 239.579C736.191 239.579 736.838 239.439 737.363 239.157C737.908 238.876 738.311 238.472 738.574 237.947C738.855 237.421 738.996 236.774 738.996 236.004V235.807ZM745.733 227.926H748.604L748.829 229.305C749.299 228.817 749.852 228.433 750.49 228.151C751.147 227.87 751.851 227.729 752.601 227.729C753.708 227.729 754.656 227.963 755.444 228.433C756.251 228.883 756.87 229.559 757.302 230.459C757.734 231.341 757.949 232.448 757.949 233.781V242H754.769V234.203C754.769 233.021 754.525 232.129 754.037 231.529C753.568 230.928 752.855 230.628 751.898 230.628C750.922 230.628 750.181 230.938 749.674 231.557C749.167 232.158 748.914 233.049 748.914 234.231V242H745.733V227.926ZM767.537 242.197C766.185 242.197 764.994 241.897 763.962 241.296C762.93 240.677 762.123 239.833 761.541 238.763C760.978 237.693 760.697 236.445 760.697 235.019C760.697 233.574 760.987 232.308 761.569 231.219C762.151 230.131 762.958 229.277 763.99 228.658C765.041 228.039 766.251 227.729 767.621 227.729C769.066 227.729 770.351 228.076 771.477 228.77C772.603 229.446 773.41 230.365 773.898 231.529L770.999 232.486C770.755 231.904 770.333 231.444 769.732 231.107C769.15 230.75 768.484 230.572 767.734 230.572C766.983 230.572 766.336 230.76 765.791 231.135C765.247 231.491 764.825 231.998 764.525 232.655C764.243 233.312 764.102 234.09 764.102 234.991C764.102 236.342 764.431 237.412 765.088 238.2C765.744 238.969 766.645 239.354 767.79 239.354C768.522 239.354 769.179 239.195 769.76 238.876C770.342 238.538 770.792 238.069 771.111 237.468L773.954 238.453C773.41 239.598 772.556 240.508 771.393 241.184C770.248 241.859 768.963 242.197 767.537 242.197ZM783.238 242.197C781.83 242.197 780.592 241.887 779.522 241.268C778.471 240.649 777.646 239.786 777.045 238.679C776.463 237.571 776.173 236.295 776.173 234.85C776.173 233.48 776.463 232.261 777.045 231.191C777.627 230.121 778.434 229.277 779.466 228.658C780.498 228.039 781.671 227.729 782.984 227.729C784.317 227.729 785.49 228.02 786.503 228.601C787.516 229.183 788.304 230 788.867 231.05C789.449 232.082 789.74 233.283 789.74 234.653C789.74 234.879 789.731 235.122 789.712 235.385C789.693 235.629 789.665 235.892 789.627 236.173H779.607C779.7 236.83 779.907 237.402 780.226 237.89C780.564 238.36 780.986 238.725 781.493 238.988C781.999 239.251 782.581 239.382 783.238 239.382C784.026 239.382 784.73 239.223 785.349 238.904C785.987 238.585 786.428 238.162 786.672 237.637L789.458 238.566C788.895 239.692 788.06 240.583 786.953 241.24C785.846 241.878 784.608 242.197 783.238 242.197ZM786.278 233.584C786.259 233.002 786.099 232.477 785.799 232.007C785.499 231.538 785.105 231.172 784.617 230.91C784.129 230.628 783.585 230.487 782.984 230.487C782.459 230.487 781.962 230.619 781.493 230.881C781.023 231.144 780.62 231.51 780.282 231.979C779.963 232.43 779.757 232.964 779.663 233.584H786.278ZM674.107 276H670.982L666.647 261.926H669.884L672.53 272.228L675.261 261.926H678.357L680.975 272.2L683.593 261.926H686.773L682.467 276H679.286L676.724 266.486L674.107 276ZM689.722 261.926H692.903V276H689.722V261.926ZM691.327 259.787C690.745 259.787 690.257 259.59 689.863 259.196C689.469 258.801 689.272 258.332 689.272 257.788C689.272 257.206 689.469 256.719 689.863 256.324C690.257 255.93 690.745 255.733 691.327 255.733C691.89 255.733 692.368 255.93 692.762 256.324C693.156 256.719 693.353 257.206 693.353 257.788C693.353 258.332 693.156 258.801 692.762 259.196C692.368 259.59 691.89 259.787 691.327 259.787ZM698.007 261.926V257.985H701.244V261.926H704.537V264.713H701.244V270.961C701.244 271.806 701.403 272.397 701.722 272.735C702.041 273.054 702.454 273.232 702.961 273.27C703.486 273.288 704.012 273.26 704.537 273.185V275.887C703.73 276.056 702.933 276.103 702.145 276.028C701.375 275.972 700.681 275.765 700.062 275.409C699.442 275.034 698.945 274.489 698.57 273.776C698.195 273.063 698.007 272.125 698.007 270.961V264.713H696.036V261.926H698.007ZM707.277 255.733H710.458V263.221C710.908 262.77 711.462 262.414 712.118 262.151C712.775 261.87 713.507 261.729 714.314 261.729C715.365 261.729 716.284 261.963 717.072 262.433C717.879 262.883 718.499 263.559 718.93 264.459C719.381 265.341 719.606 266.448 719.606 267.781V276H716.312V268.203C716.312 267.021 716.068 266.129 715.581 265.529C715.111 264.928 714.398 264.628 713.441 264.628C712.465 264.628 711.724 264.938 711.218 265.557C710.711 266.176 710.458 267.077 710.458 268.259V276H707.277V255.733ZM733.081 271.468C733.212 271.994 733.438 272.397 733.757 272.679C734.094 272.96 734.46 273.157 734.854 273.27C735.248 273.363 735.624 273.41 735.98 273.41C736.712 273.41 737.284 273.27 737.697 272.988C738.129 272.688 738.345 272.313 738.345 271.862C738.345 271.487 738.204 271.196 737.922 270.99C737.641 270.783 737.275 270.624 736.825 270.511C736.393 270.38 735.943 270.248 735.474 270.117C734.967 269.986 734.423 269.836 733.841 269.667C733.278 269.498 732.743 269.263 732.237 268.963C731.73 268.663 731.317 268.278 730.998 267.809C730.679 267.34 730.52 266.758 730.52 266.064C730.52 265.182 730.763 264.422 731.251 263.784C731.739 263.127 732.405 262.62 733.25 262.264C734.094 261.907 735.042 261.729 736.093 261.729C737.35 261.729 738.439 261.992 739.358 262.517C740.278 263.042 740.944 263.812 741.357 264.825L738.57 265.726C738.439 265.463 738.241 265.238 737.979 265.05C737.735 264.863 737.435 264.731 737.078 264.656C736.74 264.562 736.393 264.516 736.037 264.516C735.436 264.516 734.929 264.638 734.517 264.881C734.104 265.125 733.897 265.473 733.897 265.923C733.897 266.148 733.963 266.345 734.094 266.514C734.244 266.683 734.441 266.824 734.685 266.936C734.929 267.03 735.22 267.124 735.558 267.218C735.896 267.293 736.252 267.387 736.628 267.499C737.228 267.668 737.819 267.856 738.401 268.062C739.001 268.25 739.546 268.494 740.034 268.794C740.54 269.094 740.934 269.488 741.216 269.976C741.516 270.464 741.685 271.083 741.722 271.834C741.722 272.641 741.488 273.382 741.019 274.058C740.55 274.715 739.874 275.24 738.992 275.634C738.129 276.009 737.097 276.197 735.896 276.197C734.507 276.197 733.316 275.897 732.321 275.296C731.326 274.696 730.651 273.729 730.294 272.397L733.081 271.468ZM756.763 276H753.836L753.639 274.593C753.17 275.099 752.607 275.493 751.95 275.775C751.293 276.056 750.599 276.197 749.867 276.197C748.76 276.197 747.803 275.972 746.996 275.521C746.208 275.052 745.598 274.377 745.166 273.495C744.735 272.594 744.519 271.487 744.519 270.173V261.926H747.7V269.751C747.7 270.915 747.934 271.806 748.403 272.425C748.873 273.026 749.595 273.326 750.571 273.326C751.509 273.326 752.241 273.026 752.766 272.425C753.311 271.806 753.583 270.896 753.583 269.695V261.926H756.763V276ZM763.282 273.917L763.648 273.833V281.63H760.467V261.926H763.338L763.563 263.671C764.032 263.127 764.642 262.667 765.393 262.292C766.143 261.917 767.054 261.729 768.123 261.729C769.343 261.729 770.422 262.029 771.36 262.63C772.317 263.23 773.059 264.075 773.584 265.163C774.128 266.233 774.4 267.499 774.4 268.963C774.4 270.408 774.128 271.675 773.584 272.763C773.059 273.851 772.327 274.696 771.388 275.296C770.45 275.897 769.362 276.197 768.123 276.197C766.997 276.197 766.022 275.981 765.196 275.55C764.37 275.099 763.732 274.555 763.282 273.917ZM770.994 268.963C770.994 267.668 770.647 266.617 769.953 265.81C769.277 265.003 768.405 264.6 767.335 264.6C766.66 264.6 766.04 264.769 765.477 265.107C764.933 265.444 764.492 265.932 764.154 266.57C763.817 267.208 763.648 268.006 763.648 268.963C763.648 269.901 763.817 270.699 764.154 271.356C764.492 271.994 764.933 272.481 765.477 272.819C766.04 273.157 766.66 273.326 767.335 273.326C768.405 273.326 769.277 272.922 769.953 272.116C770.647 271.309 770.994 270.258 770.994 268.963ZM783.678 276.197C782.27 276.197 781.032 275.887 779.962 275.268C778.911 274.649 778.085 273.786 777.485 272.679C776.903 271.571 776.612 270.295 776.612 268.85C776.612 267.48 776.903 266.261 777.485 265.191C778.067 264.121 778.874 263.277 779.906 262.658C780.938 262.039 782.111 261.729 783.424 261.729C784.757 261.729 785.929 262.02 786.943 262.601C787.956 263.183 788.744 264 789.307 265.05C789.889 266.082 790.18 267.283 790.18 268.653C790.18 268.879 790.17 269.122 790.152 269.385C790.133 269.629 790.105 269.892 790.067 270.173H780.046C780.14 270.83 780.347 271.402 780.666 271.89C781.003 272.36 781.426 272.725 781.932 272.988C782.439 273.251 783.021 273.382 783.678 273.382C784.466 273.382 785.169 273.223 785.789 272.904C786.427 272.585 786.868 272.162 787.112 271.637L789.898 272.566C789.335 273.692 788.5 274.583 787.393 275.24C786.286 275.878 785.047 276.197 783.678 276.197ZM786.718 267.584C786.699 267.002 786.539 266.477 786.239 266.007C785.939 265.538 785.545 265.172 785.057 264.91C784.569 264.628 784.025 264.487 783.424 264.487C782.899 264.487 782.401 264.619 781.932 264.881C781.463 265.144 781.06 265.51 780.722 265.979C780.403 266.43 780.197 266.964 780.103 267.584H786.718ZM793.178 261.926H796.049L796.303 263.671C796.678 263.202 797.119 262.817 797.626 262.517C798.132 262.198 798.676 261.982 799.258 261.87C799.859 261.757 800.459 261.776 801.06 261.926V264.853C800.572 264.684 800.046 264.647 799.483 264.741C798.939 264.816 798.432 265.022 797.963 265.36C797.494 265.679 797.11 266.139 796.809 266.739C796.509 267.321 796.359 268.043 796.359 268.907V276H793.178V261.926ZM669.913 305.468C670.044 305.994 670.269 306.397 670.588 306.679C670.926 306.96 671.292 307.157 671.686 307.27C672.08 307.363 672.455 307.41 672.812 307.41C673.544 307.41 674.116 307.27 674.529 306.988C674.96 306.688 675.176 306.313 675.176 305.862C675.176 305.487 675.036 305.196 674.754 304.99C674.473 304.783 674.107 304.624 673.656 304.511C673.225 304.38 672.774 304.248 672.305 304.117C671.799 303.986 671.254 303.836 670.673 303.667C670.11 303.498 669.575 303.263 669.068 302.963C668.561 302.663 668.149 302.278 667.83 301.809C667.511 301.34 667.351 300.758 667.351 300.064C667.351 299.182 667.595 298.422 668.083 297.784C668.571 297.127 669.237 296.62 670.081 296.264C670.926 295.907 671.874 295.729 672.924 295.729C674.182 295.729 675.27 295.992 676.19 296.517C677.109 297.042 677.775 297.812 678.188 298.825L675.401 299.726C675.27 299.463 675.073 299.238 674.81 299.05C674.566 298.863 674.266 298.731 673.91 298.656C673.572 298.562 673.225 298.516 672.868 298.516C672.268 298.516 671.761 298.638 671.348 298.881C670.935 299.125 670.729 299.473 670.729 299.923C670.729 300.148 670.795 300.345 670.926 300.514C671.076 300.683 671.273 300.824 671.517 300.936C671.761 301.03 672.052 301.124 672.39 301.218C672.727 301.293 673.084 301.387 673.459 301.499C674.06 301.668 674.651 301.856 675.233 302.062C675.833 302.25 676.377 302.494 676.865 302.794C677.372 303.094 677.766 303.488 678.047 303.976C678.348 304.464 678.517 305.083 678.554 305.834C678.554 306.641 678.32 307.382 677.85 308.058C677.381 308.715 676.706 309.24 675.824 309.634C674.96 310.009 673.928 310.197 672.727 310.197C671.339 310.197 670.147 309.897 669.153 309.296C668.158 308.696 667.482 307.729 667.126 306.397L669.913 305.468ZM682.448 295.926V291.985H685.685V295.926H688.979V298.713H685.685V304.961C685.685 305.806 685.845 306.397 686.164 306.735C686.483 307.054 686.896 307.232 687.402 307.27C687.928 307.288 688.453 307.26 688.979 307.185V309.887C688.172 310.056 687.374 310.103 686.586 310.028C685.817 309.972 685.122 309.765 684.503 309.409C683.884 309.034 683.387 308.489 683.011 307.776C682.636 307.063 682.448 306.125 682.448 304.961V298.713H680.478V295.926H682.448ZM691.718 295.926H694.59L694.843 297.671C695.218 297.202 695.659 296.817 696.166 296.517C696.672 296.198 697.217 295.982 697.798 295.87C698.399 295.757 698.999 295.776 699.6 295.926V298.853C699.112 298.684 698.587 298.647 698.024 298.741C697.479 298.816 696.973 299.022 696.504 299.36C696.034 299.679 695.65 300.139 695.35 300.739C695.049 301.321 694.899 302.043 694.899 302.907V310H691.718V295.926ZM708.414 310.197C707.007 310.197 705.768 309.887 704.699 309.268C703.648 308.649 702.822 307.786 702.222 306.679C701.64 305.571 701.349 304.295 701.349 302.85C701.349 301.48 701.64 300.261 702.222 299.191C702.803 298.121 703.61 297.277 704.642 296.658C705.674 296.039 706.847 295.729 708.161 295.729C709.493 295.729 710.666 296.02 711.679 296.601C712.693 297.183 713.481 298 714.044 299.05C714.626 300.082 714.916 301.283 714.916 302.653C714.916 302.879 714.907 303.122 714.888 303.385C714.87 303.629 714.841 303.892 714.804 304.173H704.783C704.877 304.83 705.083 305.402 705.402 305.89C705.74 306.36 706.162 306.725 706.669 306.988C707.176 307.251 707.757 307.382 708.414 307.382C709.202 307.382 709.906 307.223 710.525 306.904C711.163 306.585 711.604 306.162 711.848 305.637L714.635 306.566C714.072 307.692 713.237 308.583 712.13 309.24C711.023 309.878 709.784 310.197 708.414 310.197ZM711.454 301.584C711.435 301.002 711.276 300.477 710.976 300.007C710.675 299.538 710.281 299.172 709.793 298.91C709.306 298.628 708.761 298.487 708.161 298.487C707.635 298.487 707.138 298.619 706.669 298.881C706.2 299.144 705.796 299.51 705.459 299.979C705.14 300.43 704.933 300.964 704.839 301.584H711.454ZM717.915 295.926H720.786L721.011 297.305C721.48 296.817 722.034 296.433 722.672 296.151C723.329 295.87 724.032 295.729 724.783 295.729C725.89 295.729 726.838 295.963 727.626 296.433C728.433 296.883 729.052 297.559 729.484 298.459C729.915 299.341 730.131 300.448 730.131 301.781V310H726.95V302.203C726.95 301.021 726.706 300.129 726.219 299.529C725.749 298.928 725.036 298.628 724.079 298.628C723.104 298.628 722.362 298.938 721.856 299.557C721.349 300.158 721.096 301.049 721.096 302.231V310H717.915V295.926ZM743.94 295.926H746.812V307.889C746.812 309.484 746.417 310.854 745.629 311.999C744.841 313.162 743.706 314.053 742.223 314.673C740.741 315.311 738.958 315.63 736.875 315.63L736.397 312.899C738.761 312.843 740.553 312.393 741.773 311.548C743.012 310.704 743.631 309.493 743.631 307.917V307.889H743.997C743.565 308.527 742.937 309.071 742.111 309.521C741.304 309.972 740.337 310.197 739.212 310.197C737.973 310.197 736.875 309.897 735.918 309.296C734.961 308.696 734.211 307.851 733.666 306.763C733.141 305.675 732.878 304.408 732.878 302.963C732.878 301.518 733.141 300.251 733.666 299.163C734.211 298.075 734.961 297.23 735.918 296.63C736.875 296.029 737.973 295.729 739.212 295.729C739.906 295.729 740.535 295.823 741.097 296.01C741.679 296.179 742.186 296.414 742.617 296.714C743.068 296.996 743.434 297.315 743.715 297.671L743.94 295.926ZM736.284 302.963C736.284 304.258 736.622 305.309 737.297 306.116C737.973 306.922 738.874 307.326 740 307.326C740.657 307.326 741.257 307.157 741.801 306.819C742.345 306.463 742.786 305.956 743.124 305.299C743.462 304.642 743.631 303.864 743.631 302.963C743.631 302.025 743.462 301.237 743.124 300.599C742.786 299.942 742.336 299.444 741.773 299.107C741.229 298.769 740.638 298.6 740 298.6C738.874 298.6 737.973 299.003 737.297 299.81C736.622 300.599 736.284 301.649 736.284 302.963ZM751.444 295.926V291.985H754.681V295.926H757.975V298.713H754.681V304.961C754.681 305.806 754.841 306.397 755.16 306.735C755.479 307.054 755.892 307.232 756.398 307.27C756.924 307.288 757.449 307.26 757.975 307.185V309.887C757.168 310.056 756.37 310.103 755.582 310.028C754.813 309.972 754.118 309.765 753.499 309.409C752.88 309.034 752.383 308.489 752.007 307.776C751.632 307.063 751.444 306.125 751.444 304.961V298.713H749.474V295.926H751.444ZM760.714 289.733H763.895V297.221C764.345 296.77 764.899 296.414 765.556 296.151C766.213 295.87 766.944 295.729 767.751 295.729C768.802 295.729 769.722 295.963 770.51 296.433C771.317 296.883 771.936 297.559 772.368 298.459C772.818 299.341 773.043 300.448 773.043 301.781V310H769.75V302.203C769.75 301.021 769.506 300.129 769.018 299.529C768.549 298.928 767.836 298.628 766.879 298.628C765.903 298.628 765.162 298.938 764.655 299.557C764.148 300.176 763.895 301.077 763.895 302.259V310H760.714V289.733ZM778.376 310.197C777.775 310.197 777.269 310 776.856 309.606C776.462 309.193 776.265 308.686 776.265 308.086C776.265 307.504 776.462 307.016 776.856 306.622C777.269 306.209 777.775 306.003 778.376 306.003C778.958 306.003 779.455 306.209 779.868 306.622C780.281 307.016 780.487 307.504 780.487 308.086C780.487 308.686 780.281 309.193 779.868 309.606C779.455 310 778.958 310.197 778.376 310.197Z" fill="#FDFBF5"/>
<path d="M404.673 340.719C405.319 340.719 405.84 340.624 406.236 340.433C406.647 340.227 406.956 339.941 407.161 339.574C407.367 339.192 407.47 338.745 407.47 338.231C407.47 337.452 407.242 336.851 406.787 336.425C406.332 335.984 405.627 335.764 404.673 335.764H401.259V340.719H404.673ZM410.112 338.231C410.112 338.789 410.017 339.339 409.826 339.882C409.635 340.426 409.327 340.932 408.901 341.402C408.475 341.857 407.91 342.224 407.205 342.503C406.515 342.767 405.671 342.9 404.673 342.9H401.259V349H398.638V333.584H404.673C405.906 333.584 406.919 333.797 407.712 334.222C408.519 334.633 409.121 335.199 409.518 335.918C409.914 336.623 410.112 337.394 410.112 338.231ZM417.332 349.154C416.275 349.154 415.328 348.927 414.491 348.471C413.654 348.002 413.001 347.348 412.531 346.511C412.061 345.66 411.827 344.661 411.827 343.516C411.827 342.356 412.069 341.351 412.553 340.499C413.038 339.647 413.706 338.994 414.557 338.539C415.409 338.069 416.356 337.834 417.398 337.834C418.456 337.834 419.403 338.069 420.239 338.539C421.091 338.994 421.766 339.647 422.266 340.499C422.765 341.336 423.014 342.327 423.014 343.472C423.014 344.632 422.757 345.638 422.244 346.489C421.744 347.341 421.062 348.002 420.195 348.471C419.344 348.927 418.389 349.154 417.332 349.154ZM417.31 346.93C417.824 346.93 418.309 346.805 418.764 346.555C419.234 346.306 419.615 345.931 419.909 345.432C420.203 344.918 420.35 344.265 420.35 343.472C420.35 342.709 420.21 342.077 419.931 341.578C419.652 341.064 419.285 340.683 418.83 340.433C418.375 340.183 417.883 340.059 417.354 340.059C416.84 340.059 416.363 340.183 415.923 340.433C415.497 340.683 415.152 341.064 414.888 341.578C414.623 342.077 414.491 342.723 414.491 343.516C414.491 344.28 414.616 344.918 414.866 345.432C415.13 345.931 415.475 346.306 415.901 346.555C416.327 346.805 416.796 346.93 417.31 346.93ZM430.214 349H427.769L424.378 337.988H426.911L428.981 346.049L431.117 337.988H433.54L435.588 346.027L437.636 337.988H440.125L436.755 349H434.266L432.262 341.556L430.214 349ZM447.013 349.154C445.911 349.154 444.942 348.912 444.106 348.427C443.283 347.943 442.637 347.268 442.168 346.401C441.712 345.535 441.485 344.537 441.485 343.406C441.485 342.334 441.712 341.38 442.168 340.543C442.623 339.706 443.254 339.045 444.062 338.561C444.869 338.076 445.787 337.834 446.814 337.834C447.857 337.834 448.775 338.062 449.567 338.517C450.36 338.972 450.977 339.611 451.417 340.433C451.872 341.24 452.1 342.18 452.1 343.252C452.1 343.428 452.093 343.619 452.078 343.825C452.063 344.015 452.041 344.221 452.012 344.441H444.172C444.245 344.955 444.407 345.403 444.656 345.785C444.92 346.152 445.251 346.438 445.647 346.644C446.044 346.849 446.499 346.952 447.013 346.952C447.629 346.952 448.18 346.827 448.664 346.577C449.164 346.328 449.509 345.997 449.699 345.586L451.88 346.313C451.439 347.194 450.786 347.891 449.92 348.405C449.053 348.905 448.084 349.154 447.013 349.154ZM449.391 342.415C449.376 341.96 449.252 341.549 449.017 341.182C448.782 340.815 448.474 340.528 448.092 340.323C447.71 340.103 447.284 339.992 446.814 339.992C446.403 339.992 446.014 340.095 445.647 340.301C445.28 340.506 444.964 340.793 444.7 341.16C444.451 341.512 444.289 341.931 444.216 342.415H449.391ZM454.446 337.988H456.692L456.891 339.354C457.184 338.987 457.529 338.686 457.926 338.451C458.322 338.201 458.748 338.032 459.203 337.944C459.673 337.856 460.143 337.871 460.613 337.988V340.279C460.231 340.147 459.82 340.117 459.379 340.191C458.953 340.249 458.557 340.411 458.19 340.675C457.823 340.925 457.522 341.285 457.287 341.754C457.052 342.209 456.935 342.775 456.935 343.45V349H454.446V337.988ZM461.915 341.292C461.915 340.132 462.113 339.075 462.51 338.121C462.921 337.151 463.479 336.322 464.183 335.632C464.903 334.927 465.732 334.384 466.672 334.002C467.626 333.62 468.647 333.43 469.733 333.43C471.246 333.43 472.611 333.789 473.83 334.509C475.063 335.228 476.003 336.263 476.649 337.614L474.512 338.341C474.175 337.695 473.741 337.174 473.213 336.777C472.684 336.381 472.126 336.094 471.539 335.918C470.952 335.742 470.372 335.654 469.799 335.654C468.801 335.654 467.905 335.889 467.112 336.359C466.32 336.814 465.696 337.467 465.241 338.319C464.8 339.156 464.58 340.147 464.58 341.292C464.58 342.422 464.8 343.413 465.241 344.265C465.696 345.102 466.32 345.755 467.112 346.225C467.905 346.695 468.801 346.93 469.799 346.93C470.387 346.93 470.981 346.842 471.583 346.666C472.2 346.475 472.78 346.152 473.323 345.697C473.881 345.227 474.343 344.603 474.711 343.825L476.825 344.507C476.149 346.093 475.188 347.268 473.94 348.031C472.692 348.78 471.29 349.154 469.733 349.154C468.647 349.154 467.626 348.963 466.672 348.582C465.732 348.2 464.903 347.657 464.183 346.952C463.479 346.247 462.921 345.418 462.51 344.463C462.113 343.494 461.915 342.437 461.915 341.292ZM479.351 333.143H481.84V349H479.351V333.143ZM491.312 349L491.092 347.657C490.74 348.126 490.321 348.486 489.837 348.736C489.352 348.985 488.706 349.11 487.899 349.11C487.135 349.11 486.475 348.985 485.917 348.736C485.359 348.471 484.926 348.112 484.617 347.657C484.324 347.187 484.177 346.644 484.177 346.027C484.177 345.102 484.515 344.331 485.19 343.714C485.88 343.083 486.886 342.694 488.207 342.547L491.092 342.239V341.38C491.092 341.028 490.938 340.712 490.63 340.433C490.321 340.139 489.83 339.992 489.154 339.992C488.567 339.992 488.053 340.139 487.613 340.433C487.187 340.712 486.9 341.138 486.754 341.71L484.595 340.917C484.874 339.948 485.425 339.192 486.247 338.649C487.084 338.106 488.097 337.834 489.286 337.834C490.725 337.834 491.804 338.194 492.524 338.913C493.243 339.633 493.603 340.55 493.603 341.666V349H491.312ZM491.092 344.155L488.449 344.485C487.891 344.559 487.473 344.72 487.194 344.97C486.915 345.205 486.776 345.506 486.776 345.873C486.776 346.21 486.908 346.504 487.172 346.754C487.451 346.989 487.825 347.106 488.295 347.106C488.897 347.106 489.404 346.996 489.815 346.776C490.241 346.555 490.556 346.24 490.762 345.829C490.982 345.418 491.092 344.911 491.092 344.309V344.155ZM496.716 337.988H499.204V349H496.716V337.988ZM497.971 336.315C497.516 336.315 497.134 336.16 496.826 335.852C496.517 335.544 496.363 335.177 496.363 334.751C496.363 334.296 496.517 333.914 496.826 333.606C497.134 333.297 497.516 333.143 497.971 333.143C498.411 333.143 498.786 333.297 499.094 333.606C499.403 333.914 499.557 334.296 499.557 334.751C499.557 335.177 499.403 335.544 499.094 335.852C498.786 336.16 498.411 336.315 497.971 336.315ZM502.493 337.988H504.739L504.915 339.023C505.282 338.656 505.716 338.37 506.215 338.165C506.714 337.944 507.257 337.834 507.844 337.834C508.579 337.834 509.239 337.988 509.827 338.297C510.414 338.59 510.891 339.023 511.258 339.596C511.64 339.023 512.161 338.59 512.822 338.297C513.482 337.988 514.195 337.834 514.958 337.834C515.824 337.834 516.573 338.018 517.204 338.385C517.85 338.737 518.35 339.266 518.702 339.97C519.054 340.661 519.231 341.527 519.231 342.569V349H516.72V342.9C516.72 341.975 516.522 341.277 516.125 340.807C515.743 340.338 515.178 340.103 514.429 340.103C513.666 340.103 513.071 340.345 512.646 340.829C512.22 341.299 512.007 342.004 512.007 342.944V349H509.518V342.9C509.518 341.975 509.335 341.277 508.968 340.807C508.615 340.338 508.065 340.103 507.316 340.103C506.552 340.103 505.973 340.345 505.576 340.829C505.18 341.299 504.981 341.997 504.981 342.922V349H502.493V337.988Z" fill="#FEF9F3"/>
<rect x="497.944" y="332.405" width="3.30462" height="3.30462" transform="rotate(45 497.944 332.405)" fill="#FEBA3F"/>
</svg>
