<svg width="512" height="512" viewBox="0 0 512 512" fill="none" xmlns="http://www.w3.org/2000/svg">
<path d="M11 11H405C458.019 11 501 53.9807 501 107V405C501 458.019 458.019 501 405 501H107C53.9807 501 11 458.019 11 405V11Z" fill="#61DAFB"/>
<g clip-path="url(#clip0_7_8)">
<path d="M387 386.428C395.959 386.428 403.222 379.297 403.222 370.5C403.222 361.703 395.959 354.572 387 354.572C378.041 354.572 370.778 361.703 370.778 370.5C370.778 379.297 378.041 386.428 387 386.428Z" fill="white"/>
<path d="M387 403.134C435.073 403.134 474.044 388.523 474.044 370.5C474.044 352.477 435.073 337.866 387 337.866C338.927 337.866 299.957 352.477 299.957 370.5C299.957 388.523 338.927 403.134 387 403.134Z" stroke="white" stroke-width="10"/>
<path d="M358.218 386.817C382.254 427.696 414.626 453.53 430.522 444.519C446.418 435.507 439.819 395.062 415.782 354.183C391.746 313.304 359.374 287.47 343.478 296.481C327.582 305.493 334.182 345.938 358.218 386.817Z" stroke="white" stroke-width="10"/>
<path d="M358.218 354.183C334.181 395.063 327.582 435.507 343.478 444.519C359.374 453.53 391.746 427.696 415.782 386.817C439.819 345.938 446.418 305.493 430.522 296.481C414.626 287.47 382.254 313.304 358.218 354.183Z" stroke="white" stroke-width="10"/>
</g>
<defs>
<clipPath id="clip0_7_8">
<rect width="182" height="159" fill="white" transform="translate(296 291)"/>
</clipPath>
</defs>
</svg>
