<svg width="16" height="16" viewBox="0 0 16 16" fill="none" xmlns="http://www.w3.org/2000/svg">
<rect width="16" height="16" fill="#E08033"/>
<path d="M8.36307 6.42563C8.99822 6.42563 9.57191 6.56393 10.0841 6.84053C10.5964 7.10689 10.9959 7.51154 11.2827 8.05449C11.5798 8.59745 11.7284 9.25821 11.7284 10.0368V15.0002H10.3454V10.2366C10.3454 9.39651 10.1354 8.75624 9.71533 8.31573C9.29531 7.86497 8.72163 7.63959 7.99427 7.63959C7.25667 7.63959 6.66762 7.87009 6.22711 8.33109C5.79685 8.79209 5.58171 9.4631 5.58171 10.3441V15.0002H4.18335V3.62891H5.58171V7.77789C5.85831 7.34763 6.23735 7.01469 6.71884 6.77906C7.21057 6.54344 7.75865 6.42563 8.36307 6.42563Z" fill="#FFFAED"/>
<rect x="4.18799" y="1.21484" width="1.3893" height="2.7846" fill="#FFFAED"/>
</svg>
